<svg xmlns="http://www.w3.org/2000/svg" width="45" height="45" viewBox="0 0 45 45">
  <g id="Group_29" data-name="Group 29" transform="translate(-121 -901)">
    <circle id="Ellipse_22" data-name="Ellipse 22" cx="22.5" cy="22.5" r="22.5" transform="translate(121 901)" fill="#232935"/>
    <path id="bxl-google" d="M15.723,8.425H9.6v2.539h3.526A3.288,3.288,0,0,1,9.6,13.506a3.885,3.885,0,0,1,0-7.77,3.8,3.8,0,0,1,2.421.867L13.93,4.69A6.57,6.57,0,1,0,9.6,16.2a6.2,6.2,0,0,0,6.276-6.574A5.494,5.494,0,0,0,15.723,8.425Z" transform="translate(134.363 913.786)" fill="#fff"/>
  </g>
</svg>
