<svg xmlns="http://www.w3.org/2000/svg" xmlns:xlink="http://www.w3.org/1999/xlink" width="1920" height="1077.911" viewBox="0 0 1920 1077.911">
  <defs>
    <clipPath id="clip-path">
      <rect width="1920" height="1077.911" fill="none"/>
    </clipPath>
  </defs>
  <g id="Repeat_Grid_1" data-name="Repeat Grid 1" clip-path="url(#clip-path)">
    <g transform="translate(-333.983 -0.078)">
      <path id="Path_57" data-name="Path 57" d="M2354.483.078V1077.99" transform="translate(-2020)" fill="none" stroke="rgba(35,41,53,0.02)" stroke-width="5"/>
    </g>
    <g transform="translate(-158.983 -0.078)">
      <path id="Path_57-2" data-name="Path 57" d="M2354.483.078V1077.99" transform="translate(-2020)" fill="none" stroke="rgba(35,41,53,0.02)" stroke-width="5"/>
    </g>
    <g transform="translate(16.017 -0.078)">
      <path id="Path_57-3" data-name="Path 57" d="M2354.483.078V1077.99" transform="translate(-2020)" fill="none" stroke="rgba(35,41,53,0.02)" stroke-width="5"/>
    </g>
    <g transform="translate(191.017 -0.078)">
      <path id="Path_57-4" data-name="Path 57" d="M2354.483.078V1077.99" transform="translate(-2020)" fill="none" stroke="rgba(35,41,53,0.02)" stroke-width="5"/>
    </g>
    <g transform="translate(366.017 -0.078)">
      <path id="Path_57-5" data-name="Path 57" d="M2354.483.078V1077.99" transform="translate(-2020)" fill="none" stroke="rgba(35,41,53,0.02)" stroke-width="5"/>
    </g>
    <g transform="translate(541.017 -0.078)">
      <path id="Path_57-6" data-name="Path 57" d="M2354.483.078V1077.99" transform="translate(-2020)" fill="none" stroke="rgba(35,41,53,0.02)" stroke-width="5"/>
    </g>
    <g transform="translate(716.017 -0.078)">
      <path id="Path_57-7" data-name="Path 57" d="M2354.483.078V1077.99" transform="translate(-2020)" fill="none" stroke="rgba(35,41,53,0.02)" stroke-width="5"/>
    </g>
    <g transform="translate(891.017 -0.078)">
      <path id="Path_57-8" data-name="Path 57" d="M2354.483.078V1077.99" transform="translate(-2020)" fill="none" stroke="rgba(35,41,53,0.02)" stroke-width="5"/>
    </g>
    <g transform="translate(1066.017 -0.078)">
      <path id="Path_57-9" data-name="Path 57" d="M2354.483.078V1077.99" transform="translate(-2020)" fill="none" stroke="rgba(35,41,53,0.02)" stroke-width="5"/>
    </g>
    <g transform="translate(1241.017 -0.078)">
      <path id="Path_57-10" data-name="Path 57" d="M2354.483.078V1077.99" transform="translate(-2020)" fill="none" stroke="rgba(35,41,53,0.02)" stroke-width="5"/>
    </g>
    <g transform="translate(1416.017 -0.078)">
      <path id="Path_57-11" data-name="Path 57" d="M2354.483.078V1077.99" transform="translate(-2020)" fill="none" stroke="rgba(35,41,53,0.02)" stroke-width="5"/>
    </g>
  </g>
</svg>
